<mxfile host="app.diagrams.net" agent="Mozilla/5.0 (Macintosh; Intel Mac OS X 10_15_7) AppleWebKit/537.36 (KHTML, like Gecko) Chrome/138.0.0.0 Safari/537.36" version="27.2.0">
  <diagram name="第 1 页" id="W9jlXEuaU4t_uOBNAHtk">
    <mxGraphModel dx="2936" dy="2884" grid="1" gridSize="10" guides="1" tooltips="1" connect="1" arrows="1" fold="1" page="0" pageScale="1" pageWidth="850" pageHeight="1100" background="none" math="0" shadow="0" adaptiveColors="simple">
      <root>
        <mxCell id="0" />
        <mxCell id="1" style="" parent="0" />
        <mxCell id="cmWE11bbGO-BxmX4DhXF-85" value="" style="shape=table;startSize=0;container=1;collapsible=0;childLayout=tableLayout;hachureGap=4;fontFamily=Architects Daughter;fontSource=https%3A%2F%2Ffonts.googleapis.com%2Fcss%3Ffamily%3DArchitects%2BDaughter;fillColor=none;labelBackgroundColor=none;sketch=1;curveFitting=1;jiggle=2;strokeColor=#0F8B8D;fontColor=#143642;" parent="1" vertex="1">
          <mxGeometry x="1190" y="-1200" width="180" height="370" as="geometry" />
        </mxCell>
        <mxCell id="cmWE11bbGO-BxmX4DhXF-86" value="" style="shape=tableRow;horizontal=0;startSize=0;swimlaneHead=0;swimlaneBody=0;top=0;left=0;bottom=0;right=0;collapsible=0;dropTarget=0;fillColor=none;points=[[0,0.5],[1,0.5]];portConstraint=eastwest;hachureGap=4;fontFamily=Architects Daughter;fontSource=https%3A%2F%2Ffonts.googleapis.com%2Fcss%3Ffamily%3DArchitects%2BDaughter;labelBackgroundColor=none;sketch=1;curveFitting=1;jiggle=2;strokeColor=#0F8B8D;fontColor=#143642;" parent="cmWE11bbGO-BxmX4DhXF-85" vertex="1">
          <mxGeometry width="180" height="370" as="geometry" />
        </mxCell>
        <mxCell id="cmWE11bbGO-BxmX4DhXF-87" value="" style="shape=partialRectangle;html=1;whiteSpace=wrap;connectable=0;overflow=hidden;fillColor=none;top=0;left=0;bottom=0;right=0;pointerEvents=1;hachureGap=4;fontFamily=Architects Daughter;fontSource=https%3A%2F%2Ffonts.googleapis.com%2Fcss%3Ffamily%3DArchitects%2BDaughter;labelBackgroundColor=none;sketch=1;curveFitting=1;jiggle=2;strokeColor=#0F8B8D;fontColor=#143642;" parent="cmWE11bbGO-BxmX4DhXF-86" vertex="1">
          <mxGeometry width="180" height="370" as="geometry">
            <mxRectangle width="180" height="370" as="alternateBounds" />
          </mxGeometry>
        </mxCell>
        <mxCell id="KBR9rTQuNz3WerCVQNlE-56" style="edgeStyle=none;curved=1;rounded=0;hachureGap=4;orthogonalLoop=1;jettySize=auto;html=1;exitX=0.5;exitY=1;exitDx=0;exitDy=0;fontFamily=Architects Daughter;fontSource=https%3A%2F%2Ffonts.googleapis.com%2Fcss%3Ffamily%3DArchitects%2BDaughter;fontSize=12;fontColor=default;startSize=8;endSize=8;entryX=0;entryY=0.559;entryDx=0;entryDy=0;entryPerimeter=0;labelBackgroundColor=none;sketch=1;curveFitting=1;jiggle=2;strokeColor=#A8201A;" parent="1" source="cmWE11bbGO-BxmX4DhXF-16" target="KBR9rTQuNz3WerCVQNlE-5" edge="1">
          <mxGeometry relative="1" as="geometry">
            <mxPoint x="870" y="130.00000000000023" as="targetPoint" />
          </mxGeometry>
        </mxCell>
        <mxCell id="KBR9rTQuNz3WerCVQNlE-57" value="大货单绑定具体节点" style="edgeLabel;html=1;align=center;verticalAlign=middle;resizable=0;points=[];fontSize=12;hachureGap=4;fontFamily=Architects Daughter;fontSource=https%3A%2F%2Ffonts.googleapis.com%2Fcss%3Ffamily%3DArchitects%2BDaughter;labelBackgroundColor=none;sketch=1;curveFitting=1;jiggle=2;fontColor=#143642;" parent="KBR9rTQuNz3WerCVQNlE-56" vertex="1" connectable="0">
          <mxGeometry x="0.0067" y="3" relative="1" as="geometry">
            <mxPoint as="offset" />
          </mxGeometry>
        </mxCell>
        <mxCell id="cmWE11bbGO-BxmX4DhXF-16" value="大货单" style="rounded=0;whiteSpace=wrap;html=1;hachureGap=4;fontFamily=Architects Daughter;fontSource=https%3A%2F%2Ffonts.googleapis.com%2Fcss%3Ffamily%3DArchitects%2BDaughter;labelBackgroundColor=none;sketch=1;curveFitting=1;jiggle=2;fillColor=#FAE5C7;strokeColor=#0F8B8D;fontColor=#143642;" parent="1" vertex="1">
          <mxGeometry x="640" y="-290" width="130" height="70" as="geometry" />
        </mxCell>
        <mxCell id="TcwltuWnv1kfypabmCLU-60" style="edgeStyle=none;curved=1;rounded=0;sketch=1;hachureGap=4;jiggle=2;curveFitting=1;orthogonalLoop=1;jettySize=auto;html=1;exitX=0.1;exitY=0.5;exitDx=0;exitDy=0;exitPerimeter=0;entryX=1;entryY=0.5;entryDx=0;entryDy=0;strokeColor=#A8201A;fontFamily=Architects Daughter;fontSource=https%3A%2F%2Ffonts.googleapis.com%2Fcss%3Ffamily%3DArchitects%2BDaughter;fontSize=16;fontColor=#143642;startSize=14;endArrow=open;endSize=14;sourcePerimeterSpacing=8;targetPerimeterSpacing=8;fillColor=#FAE5C7;" edge="1" parent="1" source="cmWE11bbGO-BxmX4DhXF-53" target="cmWE11bbGO-BxmX4DhXF-16">
          <mxGeometry relative="1" as="geometry" />
        </mxCell>
        <mxCell id="cmWE11bbGO-BxmX4DhXF-53" value="" style="shape=curlyBracket;whiteSpace=wrap;html=1;rounded=1;labelPosition=left;verticalLabelPosition=middle;align=right;verticalAlign=middle;hachureGap=4;fontFamily=Architects Daughter;fontSource=https%3A%2F%2Ffonts.googleapis.com%2Fcss%3Ffamily%3DArchitects%2BDaughter;labelBackgroundColor=none;sketch=1;curveFitting=1;jiggle=2;fillColor=#FAE5C7;strokeColor=#0F8B8D;fontColor=#143642;" parent="1" vertex="1">
          <mxGeometry x="850" y="-330" width="50" height="160" as="geometry" />
        </mxCell>
        <mxCell id="cmWE11bbGO-BxmX4DhXF-55" value="大货裁剪" style="whiteSpace=wrap;html=1;fontFamily=Architects Daughter;align=center;rounded=1;hachureGap=4;fontSource=https%3A%2F%2Ffonts.googleapis.com%2Fcss%3Ffamily%3DArchitects%2BDaughter;labelBackgroundColor=none;sketch=1;curveFitting=1;jiggle=2;fillColor=#FAE5C7;strokeColor=#0F8B8D;fontColor=#143642;" parent="1" vertex="1">
          <mxGeometry x="900" y="-200" width="130" height="50" as="geometry" />
        </mxCell>
        <mxCell id="cmWE11bbGO-BxmX4DhXF-61" value="" style="edgeStyle=none;curved=1;rounded=0;hachureGap=4;orthogonalLoop=1;jettySize=auto;html=1;fontFamily=Architects Daughter;fontSource=https%3A%2F%2Ffonts.googleapis.com%2Fcss%3Ffamily%3DArchitects%2BDaughter;fontSize=12;fontColor=default;startSize=8;endSize=8;entryX=0.008;entryY=0.65;entryDx=0;entryDy=0;entryPerimeter=0;labelBackgroundColor=none;sketch=1;curveFitting=1;jiggle=2;strokeColor=#A8201A;" parent="1" source="cmWE11bbGO-BxmX4DhXF-57" target="cmWE11bbGO-BxmX4DhXF-60" edge="1">
          <mxGeometry relative="1" as="geometry" />
        </mxCell>
        <mxCell id="cmWE11bbGO-BxmX4DhXF-64" value="" style="edgeStyle=none;curved=1;rounded=0;hachureGap=4;orthogonalLoop=1;jettySize=auto;html=1;fontFamily=Architects Daughter;fontSource=https%3A%2F%2Ffonts.googleapis.com%2Fcss%3Ffamily%3DArchitects%2BDaughter;fontSize=12;fontColor=default;startSize=8;endSize=8;labelBackgroundColor=none;sketch=1;curveFitting=1;jiggle=2;strokeColor=#A8201A;" parent="1" source="cmWE11bbGO-BxmX4DhXF-57" target="cmWE11bbGO-BxmX4DhXF-63" edge="1">
          <mxGeometry relative="1" as="geometry" />
        </mxCell>
        <mxCell id="cmWE11bbGO-BxmX4DhXF-57" value="大货裁剪" style="whiteSpace=wrap;html=1;hachureGap=4;fontFamily=Architects Daughter;fontSource=https%3A%2F%2Ffonts.googleapis.com%2Fcss%3Ffamily%3DArchitects%2BDaughter;labelBackgroundColor=none;sketch=1;curveFitting=1;jiggle=2;fillColor=#FAE5C7;strokeColor=#0F8B8D;fontColor=#143642;" parent="1" vertex="1">
          <mxGeometry x="900" y="-360" width="140" height="50" as="geometry" />
        </mxCell>
        <mxCell id="cmWE11bbGO-BxmX4DhXF-79" style="edgeStyle=none;curved=1;rounded=0;hachureGap=4;orthogonalLoop=1;jettySize=auto;html=1;exitX=1;exitY=0.5;exitDx=0;exitDy=0;entryX=0;entryY=0.75;entryDx=0;entryDy=0;fontFamily=Architects Daughter;fontSource=https%3A%2F%2Ffonts.googleapis.com%2Fcss%3Ffamily%3DArchitects%2BDaughter;fontSize=12;fontColor=default;startSize=8;endSize=8;labelBackgroundColor=none;sketch=1;curveFitting=1;jiggle=2;strokeColor=#A8201A;" parent="1" source="cmWE11bbGO-BxmX4DhXF-60" target="cmWE11bbGO-BxmX4DhXF-76" edge="1">
          <mxGeometry relative="1" as="geometry" />
        </mxCell>
        <mxCell id="cmWE11bbGO-BxmX4DhXF-80" style="edgeStyle=none;curved=1;rounded=0;hachureGap=4;orthogonalLoop=1;jettySize=auto;html=1;entryX=0;entryY=0.5;entryDx=0;entryDy=0;fontFamily=Architects Daughter;fontSource=https%3A%2F%2Ffonts.googleapis.com%2Fcss%3Ffamily%3DArchitects%2BDaughter;fontSize=12;fontColor=default;startSize=8;endSize=8;labelBackgroundColor=none;sketch=1;curveFitting=1;jiggle=2;strokeColor=#A8201A;" parent="1" source="cmWE11bbGO-BxmX4DhXF-60" target="cmWE11bbGO-BxmX4DhXF-77" edge="1">
          <mxGeometry relative="1" as="geometry" />
        </mxCell>
        <mxCell id="cmWE11bbGO-BxmX4DhXF-60" value="菲票" style="whiteSpace=wrap;html=1;fontFamily=Architects Daughter;hachureGap=4;fontSource=https%3A%2F%2Ffonts.googleapis.com%2Fcss%3Ffamily%3DArchitects%2BDaughter;labelBackgroundColor=none;sketch=1;curveFitting=1;jiggle=2;fillColor=#FAE5C7;strokeColor=#0F8B8D;fontColor=#143642;" parent="1" vertex="1">
          <mxGeometry x="1190" y="-480" width="120" height="60" as="geometry" />
        </mxCell>
        <mxCell id="cmWE11bbGO-BxmX4DhXF-63" value="菲票" style="whiteSpace=wrap;html=1;fontFamily=Architects Daughter;hachureGap=4;fontSource=https%3A%2F%2Ffonts.googleapis.com%2Fcss%3Ffamily%3DArchitects%2BDaughter;labelBackgroundColor=none;sketch=1;curveFitting=1;jiggle=2;fillColor=#FAE5C7;strokeColor=#0F8B8D;fontColor=#143642;" parent="1" vertex="1">
          <mxGeometry x="1180" y="-310" width="120" height="60" as="geometry" />
        </mxCell>
        <mxCell id="cmWE11bbGO-BxmX4DhXF-67" style="edgeStyle=none;curved=1;rounded=0;hachureGap=4;orthogonalLoop=1;jettySize=auto;html=1;entryX=0.5;entryY=0;entryDx=0;entryDy=0;fontFamily=Architects Daughter;fontSource=https%3A%2F%2Ffonts.googleapis.com%2Fcss%3Ffamily%3DArchitects%2BDaughter;fontSize=12;fontColor=default;startSize=8;endSize=8;labelBackgroundColor=none;sketch=1;curveFitting=1;jiggle=2;strokeColor=#A8201A;" parent="1" source="cmWE11bbGO-BxmX4DhXF-66" target="cmWE11bbGO-BxmX4DhXF-16" edge="1">
          <mxGeometry relative="1" as="geometry" />
        </mxCell>
        <mxCell id="cmWE11bbGO-BxmX4DhXF-68" style="edgeStyle=none;curved=1;rounded=0;hachureGap=4;orthogonalLoop=1;jettySize=auto;html=1;entryX=0.5;entryY=0;entryDx=0;entryDy=0;fontFamily=Architects Daughter;fontSource=https%3A%2F%2Ffonts.googleapis.com%2Fcss%3Ffamily%3DArchitects%2BDaughter;fontSize=12;fontColor=default;startSize=8;endSize=8;exitX=0.5;exitY=1;exitDx=0;exitDy=0;labelBackgroundColor=none;sketch=1;curveFitting=1;jiggle=2;strokeColor=#A8201A;" parent="1" source="cmWE11bbGO-BxmX4DhXF-66" edge="1">
          <mxGeometry relative="1" as="geometry">
            <mxPoint x="800" y="-590.0033333333333" as="sourcePoint" />
            <mxPoint x="1190" y="-468.6699999999999" as="targetPoint" />
          </mxGeometry>
        </mxCell>
        <mxCell id="cmWE11bbGO-BxmX4DhXF-69" value="" style="edgeLabel;html=1;align=center;verticalAlign=middle;resizable=0;points=[];fontSize=12;hachureGap=4;fontFamily=Architects Daughter;fontSource=https%3A%2F%2Ffonts.googleapis.com%2Fcss%3Ffamily%3DArchitects%2BDaughter;labelBackgroundColor=none;sketch=1;curveFitting=1;jiggle=2;fontColor=#143642;" parent="cmWE11bbGO-BxmX4DhXF-68" vertex="1" connectable="0">
          <mxGeometry x="0.2144" y="3" relative="1" as="geometry">
            <mxPoint as="offset" />
          </mxGeometry>
        </mxCell>
        <mxCell id="cmWE11bbGO-BxmX4DhXF-70" value="绑定基础款号和SKU" style="edgeLabel;html=1;align=center;verticalAlign=middle;resizable=0;points=[];fontSize=12;hachureGap=4;fontFamily=Architects Daughter;fontSource=https%3A%2F%2Ffonts.googleapis.com%2Fcss%3Ffamily%3DArchitects%2BDaughter;labelBackgroundColor=none;sketch=1;curveFitting=1;jiggle=2;fontColor=#143642;" parent="cmWE11bbGO-BxmX4DhXF-68" vertex="1" connectable="0">
          <mxGeometry x="0.0488" y="3" relative="1" as="geometry">
            <mxPoint as="offset" />
          </mxGeometry>
        </mxCell>
        <mxCell id="cmWE11bbGO-BxmX4DhXF-66" value="款号SkU" style="rounded=0;whiteSpace=wrap;html=1;hachureGap=4;fontFamily=Architects Daughter;fontSource=https%3A%2F%2Ffonts.googleapis.com%2Fcss%3Ffamily%3DArchitects%2BDaughter;labelBackgroundColor=none;sketch=1;curveFitting=1;jiggle=2;fillColor=#FAE5C7;strokeColor=#0F8B8D;fontColor=#143642;" parent="1" vertex="1">
          <mxGeometry x="840" y="-660" width="120" height="40" as="geometry" />
        </mxCell>
        <mxCell id="cmWE11bbGO-BxmX4DhXF-74" value="内部：内部款号SKU&lt;div&gt;外部：&lt;/div&gt;&lt;div&gt;维护款号外部SKU自动生成&amp;nbsp;&lt;span style=&quot;background-color: transparent; color: light-dark(rgb(0, 0, 0), rgb(237, 237, 237));&quot;&gt;颜色尺码规则&lt;/span&gt;&lt;/div&gt;" style="shape=note;whiteSpace=wrap;html=1;backgroundOutline=1;darkOpacity=0.05;strokeColor=none;fillStyle=solid;direction=west;gradientDirection=north;shadow=1;size=20;pointerEvents=1;hachureGap=4;fontFamily=Architects Daughter;fontSource=https%3A%2F%2Ffonts.googleapis.com%2Fcss%3Ffamily%3DArchitects%2BDaughter;labelBackgroundColor=none;sketch=1;curveFitting=1;jiggle=2;fillColor=#FAE5C7;fontColor=#143642;" parent="1" vertex="1">
          <mxGeometry x="890" y="-510" width="130" height="110" as="geometry" />
        </mxCell>
        <mxCell id="KBR9rTQuNz3WerCVQNlE-19" style="edgeStyle=none;curved=1;rounded=0;hachureGap=4;orthogonalLoop=1;jettySize=auto;html=1;fontFamily=Architects Daughter;fontSource=https%3A%2F%2Ffonts.googleapis.com%2Fcss%3Ffamily%3DArchitects%2BDaughter;fontSize=12;fontColor=default;startSize=8;endSize=8;labelBackgroundColor=none;sketch=1;curveFitting=1;jiggle=2;strokeColor=#A8201A;" parent="1" source="cmWE11bbGO-BxmX4DhXF-75" target="KBR9rTQuNz3WerCVQNlE-13" edge="1">
          <mxGeometry relative="1" as="geometry" />
        </mxCell>
        <mxCell id="KBR9rTQuNz3WerCVQNlE-21" style="edgeStyle=none;curved=1;rounded=0;hachureGap=4;orthogonalLoop=1;jettySize=auto;html=1;exitX=0.25;exitY=1;exitDx=0;exitDy=0;fontFamily=Architects Daughter;fontSource=https%3A%2F%2Ffonts.googleapis.com%2Fcss%3Ffamily%3DArchitects%2BDaughter;fontSize=12;fontColor=default;shape=filledEdge;entryX=0.497;entryY=-0.006;entryDx=0;entryDy=0;entryPerimeter=0;labelBackgroundColor=none;sketch=1;curveFitting=1;jiggle=2;strokeColor=#A8201A;" parent="1" source="cmWE11bbGO-BxmX4DhXF-75" target="KBR9rTQuNz3WerCVQNlE-5" edge="1">
          <mxGeometry relative="1" as="geometry" />
        </mxCell>
        <mxCell id="KBR9rTQuNz3WerCVQNlE-22" value="触发节点进度" style="edgeLabel;html=1;align=center;verticalAlign=middle;resizable=0;points=[];fontSize=12;hachureGap=4;fontFamily=Architects Daughter;fontSource=https%3A%2F%2Ffonts.googleapis.com%2Fcss%3Ffamily%3DArchitects%2BDaughter;labelBackgroundColor=none;sketch=1;curveFitting=1;jiggle=2;fontColor=#143642;" parent="KBR9rTQuNz3WerCVQNlE-21" vertex="1" connectable="0">
          <mxGeometry x="-0.1649" relative="1" as="geometry">
            <mxPoint as="offset" />
          </mxGeometry>
        </mxCell>
        <mxCell id="cmWE11bbGO-BxmX4DhXF-75" value="扫菲上报" style="rounded=0;whiteSpace=wrap;html=1;hachureGap=4;fontFamily=Architects Daughter;fontSource=https%3A%2F%2Ffonts.googleapis.com%2Fcss%3Ffamily%3DArchitects%2BDaughter;labelBackgroundColor=none;sketch=1;curveFitting=1;jiggle=2;fillColor=#FAE5C7;strokeColor=#0F8B8D;fontColor=#143642;" parent="1" vertex="1">
          <mxGeometry x="1610" y="-360" width="130" height="60" as="geometry" />
        </mxCell>
        <mxCell id="cmWE11bbGO-BxmX4DhXF-76" value="工序1" style="rounded=0;whiteSpace=wrap;html=1;hachureGap=4;fontFamily=Architects Daughter;fontSource=https%3A%2F%2Ffonts.googleapis.com%2Fcss%3Ffamily%3DArchitects%2BDaughter;labelBackgroundColor=none;sketch=1;curveFitting=1;jiggle=2;fillColor=#FAE5C7;strokeColor=#0F8B8D;fontColor=#143642;" parent="1" vertex="1">
          <mxGeometry x="1380" y="-540" width="115" height="40" as="geometry" />
        </mxCell>
        <mxCell id="cmWE11bbGO-BxmX4DhXF-77" value="工序2" style="rounded=0;whiteSpace=wrap;html=1;hachureGap=4;fontFamily=Architects Daughter;fontSource=https%3A%2F%2Ffonts.googleapis.com%2Fcss%3Ffamily%3DArchitects%2BDaughter;labelBackgroundColor=none;sketch=1;curveFitting=1;jiggle=2;fillColor=#FAE5C7;strokeColor=#0F8B8D;fontColor=#143642;" parent="1" vertex="1">
          <mxGeometry x="1380" y="-460" width="115" height="40" as="geometry" />
        </mxCell>
        <mxCell id="cmWE11bbGO-BxmX4DhXF-95" value="大货工序表" style="shape=table;startSize=30;container=1;collapsible=0;childLayout=tableLayout;fixedRows=1;rowLines=0;fontStyle=0;fontSize=16;hachureGap=4;fontFamily=Architects Daughter;fontSource=https%3A%2F%2Ffonts.googleapis.com%2Fcss%3Ffamily%3DArchitects%2BDaughter;labelBackgroundColor=none;sketch=1;curveFitting=1;jiggle=2;fillColor=#FAE5C7;strokeColor=#0F8B8D;fontColor=#143642;" parent="1" vertex="1">
          <mxGeometry x="800" y="180" width="170" height="120" as="geometry" />
        </mxCell>
        <mxCell id="cmWE11bbGO-BxmX4DhXF-96" value="" style="shape=tableRow;horizontal=0;startSize=0;swimlaneHead=0;swimlaneBody=0;top=0;left=0;bottom=0;right=0;collapsible=0;dropTarget=0;fillColor=none;points=[[0,0.5],[1,0.5]];portConstraint=eastwest;fontSize=16;hachureGap=4;fontFamily=Architects Daughter;fontSource=https%3A%2F%2Ffonts.googleapis.com%2Fcss%3Ffamily%3DArchitects%2BDaughter;labelBackgroundColor=none;sketch=1;curveFitting=1;jiggle=2;strokeColor=#0F8B8D;fontColor=#143642;" parent="cmWE11bbGO-BxmX4DhXF-95" vertex="1">
          <mxGeometry y="30" width="170" height="30" as="geometry" />
        </mxCell>
        <mxCell id="cmWE11bbGO-BxmX4DhXF-97" value="1" style="shape=partialRectangle;html=1;whiteSpace=wrap;connectable=0;fillColor=none;top=0;left=0;bottom=0;right=0;overflow=hidden;pointerEvents=1;fontSize=16;hachureGap=4;fontFamily=Architects Daughter;fontSource=https%3A%2F%2Ffonts.googleapis.com%2Fcss%3Ffamily%3DArchitects%2BDaughter;labelBackgroundColor=none;sketch=1;curveFitting=1;jiggle=2;strokeColor=#0F8B8D;fontColor=#143642;" parent="cmWE11bbGO-BxmX4DhXF-96" vertex="1">
          <mxGeometry width="38" height="30" as="geometry">
            <mxRectangle width="38" height="30" as="alternateBounds" />
          </mxGeometry>
        </mxCell>
        <mxCell id="cmWE11bbGO-BxmX4DhXF-98" value="工序1" style="shape=partialRectangle;html=1;whiteSpace=wrap;connectable=0;fillColor=none;top=0;left=0;bottom=0;right=0;align=left;spacingLeft=6;overflow=hidden;fontSize=16;hachureGap=4;fontFamily=Architects Daughter;fontSource=https%3A%2F%2Ffonts.googleapis.com%2Fcss%3Ffamily%3DArchitects%2BDaughter;labelBackgroundColor=none;sketch=1;curveFitting=1;jiggle=2;strokeColor=#0F8B8D;fontColor=#143642;" parent="cmWE11bbGO-BxmX4DhXF-96" vertex="1">
          <mxGeometry x="38" width="132" height="30" as="geometry">
            <mxRectangle width="132" height="30" as="alternateBounds" />
          </mxGeometry>
        </mxCell>
        <mxCell id="cmWE11bbGO-BxmX4DhXF-99" value="" style="shape=tableRow;horizontal=0;startSize=0;swimlaneHead=0;swimlaneBody=0;top=0;left=0;bottom=0;right=0;collapsible=0;dropTarget=0;fillColor=none;points=[[0,0.5],[1,0.5]];portConstraint=eastwest;fontSize=16;hachureGap=4;fontFamily=Architects Daughter;fontSource=https%3A%2F%2Ffonts.googleapis.com%2Fcss%3Ffamily%3DArchitects%2BDaughter;labelBackgroundColor=none;sketch=1;curveFitting=1;jiggle=2;strokeColor=#0F8B8D;fontColor=#143642;" parent="cmWE11bbGO-BxmX4DhXF-95" vertex="1">
          <mxGeometry y="60" width="170" height="30" as="geometry" />
        </mxCell>
        <mxCell id="cmWE11bbGO-BxmX4DhXF-100" value="2" style="shape=partialRectangle;html=1;whiteSpace=wrap;connectable=0;fillColor=none;top=0;left=0;bottom=0;right=0;overflow=hidden;fontSize=16;hachureGap=4;fontFamily=Architects Daughter;fontSource=https%3A%2F%2Ffonts.googleapis.com%2Fcss%3Ffamily%3DArchitects%2BDaughter;labelBackgroundColor=none;sketch=1;curveFitting=1;jiggle=2;strokeColor=#0F8B8D;fontColor=#143642;" parent="cmWE11bbGO-BxmX4DhXF-99" vertex="1">
          <mxGeometry width="38" height="30" as="geometry">
            <mxRectangle width="38" height="30" as="alternateBounds" />
          </mxGeometry>
        </mxCell>
        <mxCell id="cmWE11bbGO-BxmX4DhXF-101" value="工序2" style="shape=partialRectangle;html=1;whiteSpace=wrap;connectable=0;fillColor=none;top=0;left=0;bottom=0;right=0;align=left;spacingLeft=6;overflow=hidden;fontSize=16;hachureGap=4;fontFamily=Architects Daughter;fontSource=https%3A%2F%2Ffonts.googleapis.com%2Fcss%3Ffamily%3DArchitects%2BDaughter;labelBackgroundColor=none;sketch=1;curveFitting=1;jiggle=2;strokeColor=#0F8B8D;fontColor=#143642;" parent="cmWE11bbGO-BxmX4DhXF-99" vertex="1">
          <mxGeometry x="38" width="132" height="30" as="geometry">
            <mxRectangle width="132" height="30" as="alternateBounds" />
          </mxGeometry>
        </mxCell>
        <mxCell id="cmWE11bbGO-BxmX4DhXF-102" value="" style="shape=tableRow;horizontal=0;startSize=0;swimlaneHead=0;swimlaneBody=0;top=0;left=0;bottom=0;right=0;collapsible=0;dropTarget=0;fillColor=none;points=[[0,0.5],[1,0.5]];portConstraint=eastwest;fontSize=16;hachureGap=4;fontFamily=Architects Daughter;fontSource=https%3A%2F%2Ffonts.googleapis.com%2Fcss%3Ffamily%3DArchitects%2BDaughter;labelBackgroundColor=none;sketch=1;curveFitting=1;jiggle=2;strokeColor=#0F8B8D;fontColor=#143642;" parent="cmWE11bbGO-BxmX4DhXF-95" vertex="1">
          <mxGeometry y="90" width="170" height="30" as="geometry" />
        </mxCell>
        <mxCell id="cmWE11bbGO-BxmX4DhXF-103" value="3" style="shape=partialRectangle;html=1;whiteSpace=wrap;connectable=0;fillColor=none;top=0;left=0;bottom=0;right=0;overflow=hidden;fontSize=16;hachureGap=4;fontFamily=Architects Daughter;fontSource=https%3A%2F%2Ffonts.googleapis.com%2Fcss%3Ffamily%3DArchitects%2BDaughter;labelBackgroundColor=none;sketch=1;curveFitting=1;jiggle=2;strokeColor=#0F8B8D;fontColor=#143642;" parent="cmWE11bbGO-BxmX4DhXF-102" vertex="1">
          <mxGeometry width="38" height="30" as="geometry">
            <mxRectangle width="38" height="30" as="alternateBounds" />
          </mxGeometry>
        </mxCell>
        <mxCell id="cmWE11bbGO-BxmX4DhXF-104" value="工序3" style="shape=partialRectangle;html=1;whiteSpace=wrap;connectable=0;fillColor=none;top=0;left=0;bottom=0;right=0;align=left;spacingLeft=6;overflow=hidden;fontSize=16;hachureGap=4;fontFamily=Architects Daughter;fontSource=https%3A%2F%2Ffonts.googleapis.com%2Fcss%3Ffamily%3DArchitects%2BDaughter;labelBackgroundColor=none;sketch=1;curveFitting=1;jiggle=2;strokeColor=#0F8B8D;fontColor=#143642;" parent="cmWE11bbGO-BxmX4DhXF-102" vertex="1">
          <mxGeometry x="38" width="132" height="30" as="geometry">
            <mxRectangle width="132" height="30" as="alternateBounds" />
          </mxGeometry>
        </mxCell>
        <mxCell id="cmWE11bbGO-BxmX4DhXF-106" value="" style="shape=actor;whiteSpace=wrap;html=1;hachureGap=4;fontFamily=Architects Daughter;fontSource=https%3A%2F%2Ffonts.googleapis.com%2Fcss%3Ffamily%3DArchitects%2BDaughter;labelBackgroundColor=none;sketch=1;curveFitting=1;jiggle=2;fillColor=#FAE5C7;strokeColor=#0F8B8D;fontColor=#143642;" parent="1" vertex="1">
          <mxGeometry x="1645" y="-510" width="40" height="60" as="geometry" />
        </mxCell>
        <mxCell id="KBR9rTQuNz3WerCVQNlE-13" value="" style="shape=image;html=1;verticalAlign=top;verticalLabelPosition=bottom;labelBackgroundColor=none;imageAspect=0;aspect=fixed;image=https://cdn1.iconfinder.com/data/icons/iconoir-vol-3/24/qr-code-128.png;hachureGap=4;fontFamily=Architects Daughter;fontSource=https%3A%2F%2Ffonts.googleapis.com%2Fcss%3Ffamily%3DArchitects%2BDaughter;labelBorderColor=none;sketch=1;curveFitting=1;jiggle=2;fillColor=#FAE5C7;strokeColor=#0F8B8D;fontColor=#143642;" parent="1" vertex="1">
          <mxGeometry x="1210" y="-410" width="80" height="80" as="geometry" />
        </mxCell>
        <mxCell id="KBR9rTQuNz3WerCVQNlE-14" value="" style="shape=image;html=1;verticalAlign=top;verticalLabelPosition=bottom;labelBackgroundColor=none;imageAspect=0;aspect=fixed;image=https://cdn1.iconfinder.com/data/icons/iconoir-vol-3/24/qr-code-128.png;hachureGap=4;fontFamily=Architects Daughter;fontSource=https%3A%2F%2Ffonts.googleapis.com%2Fcss%3Ffamily%3DArchitects%2BDaughter;labelBorderColor=none;sketch=1;curveFitting=1;jiggle=2;fillColor=#FAE5C7;strokeColor=#0F8B8D;fontColor=#143642;" parent="1" vertex="1">
          <mxGeometry x="1210" y="-240" width="80" height="80" as="geometry" />
        </mxCell>
        <mxCell id="KBR9rTQuNz3WerCVQNlE-17" style="edgeStyle=none;curved=1;rounded=0;hachureGap=4;orthogonalLoop=1;jettySize=auto;html=1;entryX=-0.002;entryY=0.633;entryDx=0;entryDy=0;entryPerimeter=0;fontFamily=Architects Daughter;fontSource=https%3A%2F%2Ffonts.googleapis.com%2Fcss%3Ffamily%3DArchitects%2BDaughter;fontSize=12;fontColor=default;startSize=8;endSize=8;dashed=1;endArrow=none;endFill=0;labelBackgroundColor=none;sketch=1;curveFitting=1;jiggle=2;strokeColor=#A8201A;" parent="1" source="cmWE11bbGO-BxmX4DhXF-95" target="KBR9rTQuNz3WerCVQNlE-13" edge="1">
          <mxGeometry relative="1" as="geometry" />
        </mxCell>
        <mxCell id="KBR9rTQuNz3WerCVQNlE-18" style="edgeStyle=none;curved=1;rounded=0;hachureGap=4;orthogonalLoop=1;jettySize=auto;html=1;fontFamily=Architects Daughter;fontSource=https%3A%2F%2Ffonts.googleapis.com%2Fcss%3Ffamily%3DArchitects%2BDaughter;fontSize=12;fontColor=default;startSize=8;endSize=8;endArrow=none;endFill=0;dashed=1;exitX=0.75;exitY=0;exitDx=0;exitDy=0;labelBackgroundColor=none;sketch=1;curveFitting=1;jiggle=2;strokeColor=#A8201A;" parent="1" source="cmWE11bbGO-BxmX4DhXF-95" target="KBR9rTQuNz3WerCVQNlE-14" edge="1">
          <mxGeometry relative="1" as="geometry">
            <mxPoint x="910" y="20" as="sourcePoint" />
          </mxGeometry>
        </mxCell>
        <mxCell id="KBR9rTQuNz3WerCVQNlE-23" value="" style="group;labelBackgroundColor=none;sketch=1;curveFitting=1;jiggle=2;fontColor=#143642;" parent="1" vertex="1" connectable="0">
          <mxGeometry x="1320" y="-40" width="230" height="340" as="geometry" />
        </mxCell>
        <mxCell id="KBR9rTQuNz3WerCVQNlE-4" value="" style="shape=table;startSize=0;container=1;collapsible=0;childLayout=tableLayout;hachureGap=4;fontFamily=Architects Daughter;fontSource=https%3A%2F%2Ffonts.googleapis.com%2Fcss%3Ffamily%3DArchitects%2BDaughter;fillColor=none;labelBackgroundColor=none;sketch=1;curveFitting=1;jiggle=2;strokeColor=#0F8B8D;fontColor=#143642;" parent="KBR9rTQuNz3WerCVQNlE-23" vertex="1">
          <mxGeometry width="230" height="340" as="geometry" />
        </mxCell>
        <mxCell id="KBR9rTQuNz3WerCVQNlE-5" value="" style="shape=tableRow;horizontal=0;startSize=0;swimlaneHead=0;swimlaneBody=0;top=0;left=0;bottom=0;right=0;collapsible=0;dropTarget=0;fillColor=none;points=[[0,0.5],[1,0.5]];portConstraint=eastwest;hachureGap=4;fontFamily=Architects Daughter;fontSource=https%3A%2F%2Ffonts.googleapis.com%2Fcss%3Ffamily%3DArchitects%2BDaughter;labelBackgroundColor=none;sketch=1;curveFitting=1;jiggle=2;strokeColor=#0F8B8D;fontColor=#143642;" parent="KBR9rTQuNz3WerCVQNlE-4" vertex="1">
          <mxGeometry width="230" height="340" as="geometry" />
        </mxCell>
        <mxCell id="KBR9rTQuNz3WerCVQNlE-6" value="" style="shape=partialRectangle;html=1;whiteSpace=wrap;connectable=0;overflow=hidden;fillColor=none;top=0;left=0;bottom=0;right=0;pointerEvents=1;hachureGap=4;fontFamily=Architects Daughter;fontSource=https%3A%2F%2Ffonts.googleapis.com%2Fcss%3Ffamily%3DArchitects%2BDaughter;labelBackgroundColor=none;sketch=1;curveFitting=1;jiggle=2;strokeColor=#0F8B8D;fontColor=#143642;" parent="KBR9rTQuNz3WerCVQNlE-5" vertex="1">
          <mxGeometry width="230" height="340" as="geometry">
            <mxRectangle width="230" height="340" as="alternateBounds" />
          </mxGeometry>
        </mxCell>
        <mxCell id="KBR9rTQuNz3WerCVQNlE-1" value="" style="verticalLabelPosition=bottom;verticalAlign=top;html=1;shape=mxgraph.flowchart.on-page_reference;hachureGap=4;fontFamily=Architects Daughter;fontSource=https%3A%2F%2Ffonts.googleapis.com%2Fcss%3Ffamily%3DArchitects%2BDaughter;labelBackgroundColor=none;sketch=1;curveFitting=1;jiggle=2;fillColor=#FAE5C7;strokeColor=#0F8B8D;fontColor=#143642;" parent="KBR9rTQuNz3WerCVQNlE-23" vertex="1">
          <mxGeometry x="20" y="20" width="60" height="60" as="geometry" />
        </mxCell>
        <mxCell id="KBR9rTQuNz3WerCVQNlE-2" value="" style="verticalLabelPosition=bottom;verticalAlign=top;html=1;shape=mxgraph.flowchart.on-page_reference;hachureGap=4;fontFamily=Architects Daughter;fontSource=https%3A%2F%2Ffonts.googleapis.com%2Fcss%3Ffamily%3DArchitects%2BDaughter;labelBackgroundColor=none;sketch=1;curveFitting=1;jiggle=2;fillColor=#FAE5C7;strokeColor=#0F8B8D;fontColor=#143642;" parent="KBR9rTQuNz3WerCVQNlE-23" vertex="1">
          <mxGeometry x="20" y="160" width="60" height="60" as="geometry" />
        </mxCell>
        <mxCell id="KBR9rTQuNz3WerCVQNlE-3" value="" style="verticalLabelPosition=bottom;verticalAlign=top;html=1;shape=mxgraph.flowchart.on-page_reference;hachureGap=4;fontFamily=Architects Daughter;fontSource=https%3A%2F%2Ffonts.googleapis.com%2Fcss%3Ffamily%3DArchitects%2BDaughter;labelBackgroundColor=none;sketch=1;curveFitting=1;jiggle=2;fillColor=#FAE5C7;strokeColor=#0F8B8D;fontColor=#143642;" parent="KBR9rTQuNz3WerCVQNlE-23" vertex="1">
          <mxGeometry x="20" y="270" width="60" height="60" as="geometry" />
        </mxCell>
        <mxCell id="KBR9rTQuNz3WerCVQNlE-11" style="edgeStyle=none;curved=1;rounded=0;hachureGap=4;orthogonalLoop=1;jettySize=auto;html=1;exitX=0.5;exitY=1;exitDx=0;exitDy=0;exitPerimeter=0;fontFamily=Architects Daughter;fontSource=https%3A%2F%2Ffonts.googleapis.com%2Fcss%3Ffamily%3DArchitects%2BDaughter;fontSize=12;fontColor=default;startSize=8;endSize=8;entryX=1;entryY=0.5;entryDx=0;entryDy=0;entryPerimeter=0;dashed=1;labelBackgroundColor=none;sketch=1;curveFitting=1;jiggle=2;strokeColor=#A8201A;" parent="KBR9rTQuNz3WerCVQNlE-23" source="KBR9rTQuNz3WerCVQNlE-7" target="KBR9rTQuNz3WerCVQNlE-2" edge="1">
          <mxGeometry relative="1" as="geometry" />
        </mxCell>
        <mxCell id="KBR9rTQuNz3WerCVQNlE-7" value="" style="verticalLabelPosition=bottom;verticalAlign=top;html=1;shape=mxgraph.flowchart.on-page_reference;hachureGap=4;fontFamily=Architects Daughter;fontSource=https%3A%2F%2Ffonts.googleapis.com%2Fcss%3Ffamily%3DArchitects%2BDaughter;labelBackgroundColor=none;sketch=1;curveFitting=1;jiggle=2;fillColor=#FAE5C7;strokeColor=#0F8B8D;fontColor=#143642;" parent="KBR9rTQuNz3WerCVQNlE-23" vertex="1">
          <mxGeometry x="160" y="150" width="60" height="60" as="geometry" />
        </mxCell>
        <mxCell id="KBR9rTQuNz3WerCVQNlE-8" style="edgeStyle=none;curved=1;rounded=0;hachureGap=4;orthogonalLoop=1;jettySize=auto;html=1;exitX=0.5;exitY=1;exitDx=0;exitDy=0;exitPerimeter=0;entryX=0.5;entryY=0;entryDx=0;entryDy=0;entryPerimeter=0;fontFamily=Architects Daughter;fontSource=https%3A%2F%2Ffonts.googleapis.com%2Fcss%3Ffamily%3DArchitects%2BDaughter;fontSize=12;fontColor=default;startSize=8;endSize=8;labelBackgroundColor=none;sketch=1;curveFitting=1;jiggle=2;strokeColor=#A8201A;" parent="KBR9rTQuNz3WerCVQNlE-23" source="KBR9rTQuNz3WerCVQNlE-1" target="KBR9rTQuNz3WerCVQNlE-2" edge="1">
          <mxGeometry relative="1" as="geometry" />
        </mxCell>
        <mxCell id="KBR9rTQuNz3WerCVQNlE-9" style="edgeStyle=none;curved=1;rounded=0;hachureGap=4;orthogonalLoop=1;jettySize=auto;html=1;entryX=0.5;entryY=0;entryDx=0;entryDy=0;entryPerimeter=0;fontFamily=Architects Daughter;fontSource=https%3A%2F%2Ffonts.googleapis.com%2Fcss%3Ffamily%3DArchitects%2BDaughter;fontSize=12;fontColor=default;startSize=8;endSize=8;labelBackgroundColor=none;sketch=1;curveFitting=1;jiggle=2;strokeColor=#A8201A;" parent="KBR9rTQuNz3WerCVQNlE-23" source="KBR9rTQuNz3WerCVQNlE-2" target="KBR9rTQuNz3WerCVQNlE-3" edge="1">
          <mxGeometry relative="1" as="geometry" />
        </mxCell>
        <mxCell id="KBR9rTQuNz3WerCVQNlE-10" style="edgeStyle=none;curved=1;rounded=0;hachureGap=4;orthogonalLoop=1;jettySize=auto;html=1;exitX=0.855;exitY=0.855;exitDx=0;exitDy=0;exitPerimeter=0;entryX=0.145;entryY=0.145;entryDx=0;entryDy=0;entryPerimeter=0;fontFamily=Architects Daughter;fontSource=https%3A%2F%2Ffonts.googleapis.com%2Fcss%3Ffamily%3DArchitects%2BDaughter;fontSize=12;fontColor=default;startSize=8;endSize=8;endArrow=classic;endFill=1;dashed=1;labelBackgroundColor=none;sketch=1;curveFitting=1;jiggle=2;strokeColor=#A8201A;" parent="KBR9rTQuNz3WerCVQNlE-23" source="KBR9rTQuNz3WerCVQNlE-1" target="KBR9rTQuNz3WerCVQNlE-7" edge="1">
          <mxGeometry relative="1" as="geometry" />
        </mxCell>
        <mxCell id="KBR9rTQuNz3WerCVQNlE-27" value="节点1" style="text;strokeColor=none;fillColor=none;html=1;align=center;verticalAlign=middle;whiteSpace=wrap;rounded=0;fontSize=16;fontFamily=Architects Daughter;fontSource=https%3A%2F%2Ffonts.googleapis.com%2Fcss%3Ffamily%3DArchitects%2BDaughter;labelBackgroundColor=none;sketch=1;curveFitting=1;jiggle=2;fontColor=#143642;" parent="KBR9rTQuNz3WerCVQNlE-23" vertex="1">
          <mxGeometry x="20" y="35" width="60" height="30" as="geometry" />
        </mxCell>
        <mxCell id="KBR9rTQuNz3WerCVQNlE-25" value="" style="endArrow=classic;html=1;rounded=0;hachureGap=4;fontFamily=Architects Daughter;fontSource=https%3A%2F%2Ffonts.googleapis.com%2Fcss%3Ffamily%3DArchitects%2BDaughter;fontSize=12;fontColor=default;startSize=8;endSize=8;curved=1;exitX=1;exitY=0.5;exitDx=0;exitDy=0;entryX=0;entryY=0.5;entryDx=0;entryDy=0;labelBackgroundColor=none;sketch=1;curveFitting=1;jiggle=2;strokeColor=#A8201A;" parent="1" source="cmWE11bbGO-BxmX4DhXF-96" target="KBR9rTQuNz3WerCVQNlE-27" edge="1">
          <mxGeometry width="50" height="50" relative="1" as="geometry">
            <mxPoint x="1050" y="90" as="sourcePoint" />
            <mxPoint x="1100" y="40" as="targetPoint" />
          </mxGeometry>
        </mxCell>
        <mxCell id="KBR9rTQuNz3WerCVQNlE-26" style="edgeStyle=none;curved=1;rounded=0;hachureGap=4;orthogonalLoop=1;jettySize=auto;html=1;exitX=1;exitY=0.5;exitDx=0;exitDy=0;fontFamily=Architects Daughter;fontSource=https%3A%2F%2Ffonts.googleapis.com%2Fcss%3Ffamily%3DArchitects%2BDaughter;fontSize=12;fontColor=default;startSize=8;endSize=8;endArrow=none;endFill=0;entryX=0;entryY=0.5;entryDx=0;entryDy=0;entryPerimeter=0;labelBackgroundColor=none;sketch=1;curveFitting=1;jiggle=2;strokeColor=#A8201A;" parent="1" source="cmWE11bbGO-BxmX4DhXF-99" target="KBR9rTQuNz3WerCVQNlE-1" edge="1">
          <mxGeometry relative="1" as="geometry">
            <mxPoint x="1350" y="30" as="targetPoint" />
          </mxGeometry>
        </mxCell>
        <mxCell id="KBR9rTQuNz3WerCVQNlE-20" value="" style="verticalLabelPosition=bottom;verticalAlign=top;html=1;shape=mxgraph.flowchart.on-page_reference;hachureGap=4;fontFamily=Architects Daughter;fontSource=https%3A%2F%2Ffonts.googleapis.com%2Fcss%3Ffamily%3DArchitects%2BDaughter;labelBackgroundColor=none;sketch=1;curveFitting=1;jiggle=2;fillColor=#FAE5C7;strokeColor=#0F8B8D;fontColor=#143642;" parent="1" vertex="1">
          <mxGeometry x="1645" y="-20" width="60" height="60" as="geometry" />
        </mxCell>
        <mxCell id="KBR9rTQuNz3WerCVQNlE-61" value="" style="verticalLabelPosition=bottom;verticalAlign=top;html=1;shape=mxgraph.flowchart.on-page_reference;hachureGap=4;fontFamily=Architects Daughter;fontSource=https%3A%2F%2Ffonts.googleapis.com%2Fcss%3Ffamily%3DArchitects%2BDaughter;labelBackgroundColor=none;sketch=1;curveFitting=1;jiggle=2;fillColor=#FAE5C7;strokeColor=#0F8B8D;fontColor=#143642;" parent="1" vertex="1">
          <mxGeometry x="1645" y="80" width="60" height="60" as="geometry" />
        </mxCell>
        <mxCell id="KBR9rTQuNz3WerCVQNlE-62" value="" style="verticalLabelPosition=bottom;verticalAlign=top;html=1;shape=mxgraph.flowchart.on-page_reference;hachureGap=4;fontFamily=Architects Daughter;fontSource=https%3A%2F%2Ffonts.googleapis.com%2Fcss%3Ffamily%3DArchitects%2BDaughter;labelBackgroundColor=none;sketch=1;curveFitting=1;jiggle=2;fillColor=#FAE5C7;strokeColor=#0F8B8D;fontColor=#143642;" parent="1" vertex="1">
          <mxGeometry x="1645" y="170" width="60" height="60" as="geometry" />
        </mxCell>
        <mxCell id="KBR9rTQuNz3WerCVQNlE-63" value="节点N" style="text;strokeColor=none;fillColor=none;html=1;align=center;verticalAlign=middle;whiteSpace=wrap;rounded=0;fontSize=16;fontFamily=Architects Daughter;fontSource=https%3A%2F%2Ffonts.googleapis.com%2Fcss%3Ffamily%3DArchitects%2BDaughter;labelBackgroundColor=none;sketch=1;curveFitting=1;jiggle=2;fontColor=#143642;" parent="1" vertex="1">
          <mxGeometry x="1645" y="-5" width="60" height="30" as="geometry" />
        </mxCell>
        <mxCell id="KBR9rTQuNz3WerCVQNlE-64" value="" style="verticalLabelPosition=bottom;verticalAlign=top;html=1;shape=mxgraph.flowchart.on-page_reference;hachureGap=4;fontFamily=Architects Daughter;fontSource=https%3A%2F%2Ffonts.googleapis.com%2Fcss%3Ffamily%3DArchitects%2BDaughter;labelBackgroundColor=none;sketch=1;curveFitting=1;jiggle=2;fillColor=#FAE5C7;strokeColor=#0F8B8D;fontColor=#143642;" parent="1" vertex="1">
          <mxGeometry x="1750" y="70" width="60" height="60" as="geometry" />
        </mxCell>
        <mxCell id="KBR9rTQuNz3WerCVQNlE-65" value="" style="verticalLabelPosition=bottom;verticalAlign=top;html=1;shape=mxgraph.flowchart.on-page_reference;hachureGap=4;fontFamily=Architects Daughter;fontSource=https%3A%2F%2Ffonts.googleapis.com%2Fcss%3Ffamily%3DArchitects%2BDaughter;labelBackgroundColor=none;sketch=1;curveFitting=1;jiggle=2;fillColor=#FAE5C7;strokeColor=#0F8B8D;fontColor=#143642;" parent="1" vertex="1">
          <mxGeometry x="1740" y="-20" width="60" height="60" as="geometry" />
        </mxCell>
        <mxCell id="KBR9rTQuNz3WerCVQNlE-66" value="" style="verticalLabelPosition=bottom;verticalAlign=top;html=1;shape=mxgraph.flowchart.on-page_reference;hachureGap=4;fontFamily=Architects Daughter;fontSource=https%3A%2F%2Ffonts.googleapis.com%2Fcss%3Ffamily%3DArchitects%2BDaughter;labelBackgroundColor=none;sketch=1;curveFitting=1;jiggle=2;fillColor=#FAE5C7;strokeColor=#0F8B8D;fontColor=#143642;" parent="1" vertex="1">
          <mxGeometry x="1750" y="160" width="60" height="60" as="geometry" />
        </mxCell>
        <mxCell id="KBR9rTQuNz3WerCVQNlE-70" value="" style="rounded=1;whiteSpace=wrap;html=1;hachureGap=4;fontFamily=Architects Daughter;fontSource=https%3A%2F%2Ffonts.googleapis.com%2Fcss%3Ffamily%3DArchitects%2BDaughter;fillColor=none;labelBackgroundColor=none;sketch=1;curveFitting=1;jiggle=2;strokeColor=#0F8B8D;fontColor=#143642;" parent="1" vertex="1">
          <mxGeometry x="1620" y="-30" width="220" height="90" as="geometry" />
        </mxCell>
        <mxCell id="KBR9rTQuNz3WerCVQNlE-71" value="" style="rounded=1;whiteSpace=wrap;html=1;hachureGap=4;fontFamily=Architects Daughter;fontSource=https%3A%2F%2Ffonts.googleapis.com%2Fcss%3Ffamily%3DArchitects%2BDaughter;fillColor=none;labelBackgroundColor=none;sketch=1;curveFitting=1;jiggle=2;strokeColor=#0F8B8D;fontColor=#143642;" parent="1" vertex="1">
          <mxGeometry x="1620" y="-30" width="110" height="270" as="geometry" />
        </mxCell>
        <mxCell id="TcwltuWnv1kfypabmCLU-42" value="" style="group" vertex="1" connectable="0" parent="1">
          <mxGeometry x="-240" y="-1200" width="520" height="580" as="geometry" />
        </mxCell>
        <mxCell id="KBR9rTQuNz3WerCVQNlE-58" value="" style="shape=table;startSize=0;container=1;collapsible=0;childLayout=tableLayout;hachureGap=4;fontFamily=Architects Daughter;fontSource=https%3A%2F%2Ffonts.googleapis.com%2Fcss%3Ffamily%3DArchitects%2BDaughter;fillColor=none;labelBackgroundColor=none;sketch=1;curveFitting=1;jiggle=2;strokeColor=#0F8B8D;fontColor=#143642;" parent="TcwltuWnv1kfypabmCLU-42" vertex="1">
          <mxGeometry width="520" height="580" as="geometry" />
        </mxCell>
        <mxCell id="KBR9rTQuNz3WerCVQNlE-59" value="" style="shape=tableRow;horizontal=0;startSize=0;swimlaneHead=0;swimlaneBody=0;top=0;left=0;bottom=0;right=0;collapsible=0;dropTarget=0;fillColor=none;points=[[0,0.5],[1,0.5]];portConstraint=eastwest;hachureGap=4;fontFamily=Architects Daughter;fontSource=https%3A%2F%2Ffonts.googleapis.com%2Fcss%3Ffamily%3DArchitects%2BDaughter;labelBackgroundColor=none;sketch=1;curveFitting=1;jiggle=2;strokeColor=#0F8B8D;fontColor=#143642;" parent="KBR9rTQuNz3WerCVQNlE-58" vertex="1">
          <mxGeometry width="520" height="580" as="geometry" />
        </mxCell>
        <mxCell id="KBR9rTQuNz3WerCVQNlE-60" value="" style="shape=partialRectangle;html=1;whiteSpace=wrap;connectable=0;overflow=hidden;fillColor=none;top=0;left=0;bottom=0;right=0;pointerEvents=1;hachureGap=4;fontFamily=Architects Daughter;fontSource=https%3A%2F%2Ffonts.googleapis.com%2Fcss%3Ffamily%3DArchitects%2BDaughter;movable=0;resizable=0;rotatable=0;deletable=0;editable=0;locked=1;labelBackgroundColor=none;sketch=1;curveFitting=1;jiggle=2;strokeColor=#0F8B8D;fontColor=#143642;" parent="KBR9rTQuNz3WerCVQNlE-59" vertex="1">
          <mxGeometry width="520" height="580" as="geometry">
            <mxRectangle width="520" height="580" as="alternateBounds" />
          </mxGeometry>
        </mxCell>
        <mxCell id="TcwltuWnv1kfypabmCLU-4" value="流程1" style="rounded=0;whiteSpace=wrap;html=1;sketch=1;hachureGap=4;jiggle=2;curveFitting=1;fontFamily=Architects Daughter;fontSource=https%3A%2F%2Ffonts.googleapis.com%2Fcss%3Ffamily%3DArchitects%2BDaughter;labelBackgroundColor=none;fillColor=#FAE5C7;strokeColor=#0F8B8D;fontColor=#143642;" vertex="1" parent="TcwltuWnv1kfypabmCLU-42">
          <mxGeometry x="137.35849056603774" y="85.57377049180329" width="264.9056603773585" height="95.08196721311475" as="geometry" />
        </mxCell>
        <mxCell id="TcwltuWnv1kfypabmCLU-5" value="流程2" style="rounded=0;whiteSpace=wrap;html=1;sketch=1;hachureGap=4;jiggle=2;curveFitting=1;fontFamily=Architects Daughter;fontSource=https%3A%2F%2Ffonts.googleapis.com%2Fcss%3Ffamily%3DArchitects%2BDaughter;labelBackgroundColor=none;fillColor=#FAE5C7;strokeColor=#0F8B8D;fontColor=#143642;" vertex="1" parent="TcwltuWnv1kfypabmCLU-42">
          <mxGeometry x="137.35849056603774" y="247.21311475409834" width="235.47169811320754" height="104.59016393442623" as="geometry" />
        </mxCell>
        <mxCell id="TcwltuWnv1kfypabmCLU-6" value="流程3" style="rounded=0;whiteSpace=wrap;html=1;sketch=1;hachureGap=4;jiggle=2;curveFitting=1;fontFamily=Architects Daughter;fontSource=https%3A%2F%2Ffonts.googleapis.com%2Fcss%3Ffamily%3DArchitects%2BDaughter;labelBackgroundColor=none;fillColor=#FAE5C7;strokeColor=#0F8B8D;fontColor=#143642;" vertex="1" parent="TcwltuWnv1kfypabmCLU-42">
          <mxGeometry x="117.73584905660377" y="389.8360655737705" width="255.0943396226415" height="142.62295081967213" as="geometry" />
        </mxCell>
        <mxCell id="TcwltuWnv1kfypabmCLU-44" value="流程示意" style="text;strokeColor=none;fillColor=none;html=1;align=center;verticalAlign=middle;whiteSpace=wrap;rounded=0;fontSize=20;fontFamily=Architects Daughter;fontSource=https%3A%2F%2Ffonts.googleapis.com%2Fcss%3Ffamily%3DArchitects%2BDaughter;fontColor=#143642;" vertex="1" parent="TcwltuWnv1kfypabmCLU-42">
          <mxGeometry x="230.56603773584905" y="19.016393442622952" width="142.26415094339623" height="28.524590163934427" as="geometry" />
        </mxCell>
        <mxCell id="TcwltuWnv1kfypabmCLU-43" value="" style="rounded=0;whiteSpace=wrap;html=1;sketch=1;hachureGap=4;jiggle=2;curveFitting=1;strokeColor=#0F8B8D;fontFamily=Architects Daughter;fontSource=https%3A%2F%2Ffonts.googleapis.com%2Fcss%3Ffamily%3DArchitects%2BDaughter;fontColor=#143642;fillColor=none;" vertex="1" parent="1">
          <mxGeometry x="640" y="-1250" width="370" height="440" as="geometry" />
        </mxCell>
        <mxCell id="TcwltuWnv1kfypabmCLU-64" style="edgeStyle=none;curved=1;rounded=0;sketch=1;hachureGap=4;jiggle=2;curveFitting=1;orthogonalLoop=1;jettySize=auto;html=1;strokeColor=#A8201A;fontFamily=Architects Daughter;fontSource=https%3A%2F%2Ffonts.googleapis.com%2Fcss%3Ffamily%3DArchitects%2BDaughter;fontSize=16;fontColor=#143642;startSize=14;endArrow=open;endSize=14;sourcePerimeterSpacing=8;targetPerimeterSpacing=8;fillColor=#FAE5C7;exitX=0.354;exitY=1;exitDx=0;exitDy=0;exitPerimeter=0;entryX=0.338;entryY=0;entryDx=0;entryDy=0;entryPerimeter=0;" edge="1" parent="1" source="TcwltuWnv1kfypabmCLU-43" target="cmWE11bbGO-BxmX4DhXF-16">
          <mxGeometry relative="1" as="geometry">
            <mxPoint x="660" y="-290" as="targetPoint" />
          </mxGeometry>
        </mxCell>
        <mxCell id="TcwltuWnv1kfypabmCLU-65" value="供应商" style="edgeLabel;html=1;align=center;verticalAlign=middle;resizable=0;points=[];fontSize=16;sketch=1;hachureGap=4;jiggle=2;curveFitting=1;strokeColor=#0F8B8D;fontFamily=Architects Daughter;fontSource=https%3A%2F%2Ffonts.googleapis.com%2Fcss%3Ffamily%3DArchitects%2BDaughter;fontColor=#143642;fillColor=#FAE5C7;" vertex="1" connectable="0" parent="TcwltuWnv1kfypabmCLU-64">
          <mxGeometry x="-0.4631" relative="1" as="geometry">
            <mxPoint as="offset" />
          </mxGeometry>
        </mxCell>
        <mxCell id="TcwltuWnv1kfypabmCLU-69" style="edgeStyle=none;curved=1;rounded=0;sketch=1;hachureGap=4;jiggle=2;curveFitting=1;orthogonalLoop=1;jettySize=auto;html=1;exitX=0;exitY=0.5;exitDx=0;exitDy=0;entryX=0.465;entryY=1.003;entryDx=0;entryDy=0;entryPerimeter=0;strokeColor=#A8201A;fontFamily=Architects Daughter;fontSource=https%3A%2F%2Ffonts.googleapis.com%2Fcss%3Ffamily%3DArchitects%2BDaughter;fontSize=16;fontColor=#143642;startSize=14;endArrow=open;endSize=14;sourcePerimeterSpacing=8;targetPerimeterSpacing=8;fillColor=#FAE5C7;" edge="1" parent="1" source="cmWE11bbGO-BxmX4DhXF-16" target="KBR9rTQuNz3WerCVQNlE-58">
          <mxGeometry relative="1" as="geometry" />
        </mxCell>
        <mxCell id="TcwltuWnv1kfypabmCLU-2" value="流程" style="" parent="0" />
        <mxCell id="TcwltuWnv1kfypabmCLU-34" value="2" style="ellipse;whiteSpace=wrap;html=1;sketch=1;hachureGap=4;jiggle=2;curveFitting=1;fontFamily=Architects Daughter;fontSource=https%3A%2F%2Ffonts.googleapis.com%2Fcss%3Ffamily%3DArchitects%2BDaughter;labelBackgroundColor=none;fillColor=#FAE5C7;strokeColor=#0F8B8D;fontColor=#143642;" vertex="1" parent="TcwltuWnv1kfypabmCLU-2">
          <mxGeometry x="170" y="-930" width="80" height="42.5" as="geometry" />
        </mxCell>
        <mxCell id="TcwltuWnv1kfypabmCLU-35" value="3" style="ellipse;whiteSpace=wrap;html=1;sketch=1;hachureGap=4;jiggle=2;curveFitting=1;fontFamily=Architects Daughter;fontSource=https%3A%2F%2Ffonts.googleapis.com%2Fcss%3Ffamily%3DArchitects%2BDaughter;labelBackgroundColor=none;fillColor=#FAE5C7;strokeColor=#0F8B8D;fontColor=#143642;" vertex="1" parent="TcwltuWnv1kfypabmCLU-2">
          <mxGeometry x="170" y="-1030" width="90" height="40" as="geometry" />
        </mxCell>
        <mxCell id="TcwltuWnv1kfypabmCLU-36" value="4" style="ellipse;whiteSpace=wrap;html=1;sketch=1;hachureGap=4;jiggle=2;curveFitting=1;fontFamily=Architects Daughter;fontSource=https%3A%2F%2Ffonts.googleapis.com%2Fcss%3Ffamily%3DArchitects%2BDaughter;labelBackgroundColor=none;fillColor=#FAE5C7;strokeColor=#0F8B8D;fontColor=#143642;" vertex="1" parent="TcwltuWnv1kfypabmCLU-2">
          <mxGeometry x="-220" y="-1020" width="70" height="35" as="geometry" />
        </mxCell>
        <mxCell id="TcwltuWnv1kfypabmCLU-54" style="edgeStyle=none;curved=1;rounded=0;sketch=1;hachureGap=4;jiggle=2;curveFitting=1;orthogonalLoop=1;jettySize=auto;html=1;exitX=0;exitY=0.5;exitDx=0;exitDy=0;strokeColor=#A8201A;fontFamily=Architects Daughter;fontSource=https%3A%2F%2Ffonts.googleapis.com%2Fcss%3Ffamily%3DArchitects%2BDaughter;fontSize=16;fontColor=#143642;startSize=14;endArrow=open;endSize=14;sourcePerimeterSpacing=8;targetPerimeterSpacing=8;fillColor=#FAE5C7;entryX=0.5;entryY=0;entryDx=0;entryDy=0;" edge="1" parent="TcwltuWnv1kfypabmCLU-2" source="TcwltuWnv1kfypabmCLU-48" target="TcwltuWnv1kfypabmCLU-30">
          <mxGeometry relative="1" as="geometry" />
        </mxCell>
        <mxCell id="TcwltuWnv1kfypabmCLU-48" value="工序1" style="rounded=0;whiteSpace=wrap;html=1;sketch=1;hachureGap=4;jiggle=2;curveFitting=1;strokeColor=#0F8B8D;fontFamily=Architects Daughter;fontSource=https%3A%2F%2Ffonts.googleapis.com%2Fcss%3Ffamily%3DArchitects%2BDaughter;fontColor=#143642;fillColor=#FAE5C7;" vertex="1" parent="TcwltuWnv1kfypabmCLU-2">
          <mxGeometry x="740" y="-1140" width="150" height="50" as="geometry" />
        </mxCell>
        <mxCell id="TcwltuWnv1kfypabmCLU-50" value="工序2" style="rounded=0;whiteSpace=wrap;html=1;sketch=1;hachureGap=4;jiggle=2;curveFitting=1;strokeColor=#0F8B8D;fontFamily=Architects Daughter;fontSource=https%3A%2F%2Ffonts.googleapis.com%2Fcss%3Ffamily%3DArchitects%2BDaughter;fontColor=#143642;fillColor=#FAE5C7;" vertex="1" parent="TcwltuWnv1kfypabmCLU-2">
          <mxGeometry x="740" y="-1030" width="150" height="50" as="geometry" />
        </mxCell>
        <mxCell id="TcwltuWnv1kfypabmCLU-56" style="edgeStyle=none;curved=1;rounded=0;sketch=1;hachureGap=4;jiggle=2;curveFitting=1;orthogonalLoop=1;jettySize=auto;html=1;exitX=0;exitY=0.5;exitDx=0;exitDy=0;strokeColor=#A8201A;fontFamily=Architects Daughter;fontSource=https%3A%2F%2Ffonts.googleapis.com%2Fcss%3Ffamily%3DArchitects%2BDaughter;fontSize=16;fontColor=#143642;startSize=14;endArrow=open;endSize=14;sourcePerimeterSpacing=8;targetPerimeterSpacing=8;fillColor=#FAE5C7;entryX=1;entryY=0.5;entryDx=0;entryDy=0;" edge="1" parent="TcwltuWnv1kfypabmCLU-2" source="TcwltuWnv1kfypabmCLU-51" target="TcwltuWnv1kfypabmCLU-34">
          <mxGeometry relative="1" as="geometry" />
        </mxCell>
        <mxCell id="TcwltuWnv1kfypabmCLU-51" value="工序3" style="rounded=0;whiteSpace=wrap;html=1;sketch=1;hachureGap=4;jiggle=2;curveFitting=1;strokeColor=#0F8B8D;fontFamily=Architects Daughter;fontSource=https%3A%2F%2Ffonts.googleapis.com%2Fcss%3Ffamily%3DArchitects%2BDaughter;fontColor=#143642;fillColor=#FAE5C7;" vertex="1" parent="TcwltuWnv1kfypabmCLU-2">
          <mxGeometry x="740" y="-930" width="150" height="50" as="geometry" />
        </mxCell>
        <mxCell id="TcwltuWnv1kfypabmCLU-55" style="edgeStyle=none;curved=1;rounded=0;sketch=1;hachureGap=4;jiggle=2;curveFitting=1;orthogonalLoop=1;jettySize=auto;html=1;exitX=0;exitY=0.5;exitDx=0;exitDy=0;entryX=0.944;entryY=0.7;entryDx=0;entryDy=0;entryPerimeter=0;strokeColor=#A8201A;fontFamily=Architects Daughter;fontSource=https%3A%2F%2Ffonts.googleapis.com%2Fcss%3Ffamily%3DArchitects%2BDaughter;fontSize=16;fontColor=#143642;startSize=14;endArrow=open;endSize=14;sourcePerimeterSpacing=8;targetPerimeterSpacing=8;fillColor=#FAE5C7;" edge="1" parent="TcwltuWnv1kfypabmCLU-2" source="TcwltuWnv1kfypabmCLU-50" target="TcwltuWnv1kfypabmCLU-30">
          <mxGeometry relative="1" as="geometry" />
        </mxCell>
        <mxCell id="TcwltuWnv1kfypabmCLU-58" value="&lt;font&gt;供应商工序配置&lt;/font&gt;" style="text;strokeColor=none;fillColor=none;html=1;align=center;verticalAlign=middle;whiteSpace=wrap;rounded=0;fontSize=20;fontFamily=Architects Daughter;fontSource=https%3A%2F%2Ffonts.googleapis.com%2Fcss%3Ffamily%3DArchitects%2BDaughter;fontColor=#143642;" vertex="1" parent="TcwltuWnv1kfypabmCLU-2">
          <mxGeometry x="700" y="-1220" width="250" height="30" as="geometry" />
        </mxCell>
        <mxCell id="TcwltuWnv1kfypabmCLU-25" value="节点" parent="0" />
        <mxCell id="TcwltuWnv1kfypabmCLU-40" style="edgeStyle=none;curved=1;rounded=0;sketch=1;hachureGap=4;jiggle=2;curveFitting=1;orthogonalLoop=1;jettySize=auto;html=1;entryX=0;entryY=0.5;entryDx=0;entryDy=0;strokeColor=#A8201A;fontFamily=Architects Daughter;fontSource=https%3A%2F%2Ffonts.googleapis.com%2Fcss%3Ffamily%3DArchitects%2BDaughter;fontSize=16;fontColor=#143642;startSize=14;endArrow=open;endSize=14;sourcePerimeterSpacing=8;targetPerimeterSpacing=8;fillColor=#FAE5C7;" edge="1" parent="TcwltuWnv1kfypabmCLU-25" source="TcwltuWnv1kfypabmCLU-26" target="TcwltuWnv1kfypabmCLU-27">
          <mxGeometry relative="1" as="geometry" />
        </mxCell>
        <mxCell id="TcwltuWnv1kfypabmCLU-26" value="节点1" style="ellipse;whiteSpace=wrap;html=1;sketch=1;hachureGap=4;jiggle=2;curveFitting=1;fontFamily=Architects Daughter;fontSource=https%3A%2F%2Ffonts.googleapis.com%2Fcss%3Ffamily%3DArchitects%2BDaughter;labelBackgroundColor=none;fillColor=#FAE5C7;strokeColor=#0F8B8D;fontColor=#143642;" vertex="1" parent="TcwltuWnv1kfypabmCLU-25">
          <mxGeometry x="-80" y="-1085" width="90" height="40" as="geometry" />
        </mxCell>
        <mxCell id="TcwltuWnv1kfypabmCLU-27" value="2" style="ellipse;whiteSpace=wrap;html=1;sketch=1;hachureGap=4;jiggle=2;curveFitting=1;fontFamily=Architects Daughter;fontSource=https%3A%2F%2Ffonts.googleapis.com%2Fcss%3Ffamily%3DArchitects%2BDaughter;labelBackgroundColor=none;fillColor=#FAE5C7;strokeColor=#0F8B8D;fontColor=#143642;" vertex="1" parent="TcwltuWnv1kfypabmCLU-25">
          <mxGeometry x="60" y="-1085" width="70" height="35" as="geometry" />
        </mxCell>
        <mxCell id="TcwltuWnv1kfypabmCLU-39" style="edgeStyle=none;curved=1;rounded=0;sketch=1;hachureGap=4;jiggle=2;curveFitting=1;orthogonalLoop=1;jettySize=auto;html=1;exitX=1;exitY=1;exitDx=0;exitDy=0;entryX=0;entryY=0.5;entryDx=0;entryDy=0;strokeColor=#A8201A;fontFamily=Architects Daughter;fontSource=https%3A%2F%2Ffonts.googleapis.com%2Fcss%3Ffamily%3DArchitects%2BDaughter;fontSize=16;fontColor=#143642;startSize=14;endArrow=open;endSize=14;sourcePerimeterSpacing=8;targetPerimeterSpacing=8;fillColor=#FAE5C7;" edge="1" parent="TcwltuWnv1kfypabmCLU-25" source="TcwltuWnv1kfypabmCLU-28" target="TcwltuWnv1kfypabmCLU-32">
          <mxGeometry relative="1" as="geometry" />
        </mxCell>
        <mxCell id="TcwltuWnv1kfypabmCLU-28" value="2" style="ellipse;whiteSpace=wrap;html=1;sketch=1;hachureGap=4;jiggle=2;curveFitting=1;fontFamily=Architects Daughter;fontSource=https%3A%2F%2Ffonts.googleapis.com%2Fcss%3Ffamily%3DArchitects%2BDaughter;labelBackgroundColor=none;fillColor=#FAE5C7;strokeColor=#0F8B8D;fontColor=#143642;" vertex="1" parent="TcwltuWnv1kfypabmCLU-25">
          <mxGeometry x="-90" y="-930" width="70" height="35" as="geometry" />
        </mxCell>
        <mxCell id="TcwltuWnv1kfypabmCLU-29" value="2" style="ellipse;whiteSpace=wrap;html=1;sketch=1;hachureGap=4;jiggle=2;curveFitting=1;fontFamily=Architects Daughter;fontSource=https%3A%2F%2Ffonts.googleapis.com%2Fcss%3Ffamily%3DArchitects%2BDaughter;labelBackgroundColor=none;fillColor=#FAE5C7;strokeColor=#0F8B8D;fontColor=#143642;" vertex="1" parent="TcwltuWnv1kfypabmCLU-25">
          <mxGeometry x="-70" y="-710" width="70" height="35" as="geometry" />
        </mxCell>
        <mxCell id="TcwltuWnv1kfypabmCLU-30" value="1" style="ellipse;whiteSpace=wrap;html=1;sketch=1;hachureGap=4;jiggle=2;curveFitting=1;fontFamily=Architects Daughter;fontSource=https%3A%2F%2Ffonts.googleapis.com%2Fcss%3Ffamily%3DArchitects%2BDaughter;labelBackgroundColor=none;fillColor=#FAE5C7;strokeColor=#0F8B8D;fontColor=#143642;" vertex="1" parent="TcwltuWnv1kfypabmCLU-25">
          <mxGeometry x="170" y="-820" width="90" height="50" as="geometry" />
        </mxCell>
        <mxCell id="TcwltuWnv1kfypabmCLU-38" style="edgeStyle=none;curved=1;rounded=0;sketch=1;hachureGap=4;jiggle=2;curveFitting=1;orthogonalLoop=1;jettySize=auto;html=1;entryX=0.5;entryY=0;entryDx=0;entryDy=0;strokeColor=#A8201A;fontFamily=Architects Daughter;fontSource=https%3A%2F%2Ffonts.googleapis.com%2Fcss%3Ffamily%3DArchitects%2BDaughter;fontSize=16;fontColor=#143642;startSize=14;endArrow=open;endSize=14;sourcePerimeterSpacing=8;targetPerimeterSpacing=8;fillColor=#FAE5C7;" edge="1" parent="TcwltuWnv1kfypabmCLU-25" source="TcwltuWnv1kfypabmCLU-31" target="TcwltuWnv1kfypabmCLU-29">
          <mxGeometry relative="1" as="geometry" />
        </mxCell>
        <mxCell id="TcwltuWnv1kfypabmCLU-31" value="1" style="ellipse;whiteSpace=wrap;html=1;sketch=1;hachureGap=4;jiggle=2;curveFitting=1;fontFamily=Architects Daughter;fontSource=https%3A%2F%2Ffonts.googleapis.com%2Fcss%3Ffamily%3DArchitects%2BDaughter;labelBackgroundColor=none;fillColor=#FAE5C7;strokeColor=#0F8B8D;fontColor=#143642;" vertex="1" parent="TcwltuWnv1kfypabmCLU-25">
          <mxGeometry x="-80" y="-790" width="70" height="35" as="geometry" />
        </mxCell>
        <mxCell id="TcwltuWnv1kfypabmCLU-32" value="3" style="ellipse;whiteSpace=wrap;html=1;sketch=1;hachureGap=4;jiggle=2;curveFitting=1;fontFamily=Architects Daughter;fontSource=https%3A%2F%2Ffonts.googleapis.com%2Fcss%3Ffamily%3DArchitects%2BDaughter;labelBackgroundColor=none;fillColor=#FAE5C7;strokeColor=#0F8B8D;fontColor=#143642;" vertex="1" parent="TcwltuWnv1kfypabmCLU-25">
          <mxGeometry x="40" y="-895" width="70" height="35" as="geometry" />
        </mxCell>
        <mxCell id="TcwltuWnv1kfypabmCLU-41" value="节点1-4 初始化数据" style="shape=note;whiteSpace=wrap;html=1;backgroundOutline=1;fontColor=#000000;darkOpacity=0.05;fillColor=#FFF9B2;strokeColor=none;fillStyle=solid;direction=west;gradientDirection=north;gradientColor=#FFF2A1;shadow=1;size=20;pointerEvents=1;sketch=1;hachureGap=4;jiggle=2;curveFitting=1;fontFamily=Architects Daughter;fontSource=https%3A%2F%2Ffonts.googleapis.com%2Fcss%3Ffamily%3DArchitects%2BDaughter;" vertex="1" parent="TcwltuWnv1kfypabmCLU-25">
          <mxGeometry x="-220" y="-1190" width="90" height="90" as="geometry" />
        </mxCell>
        <mxCell id="TcwltuWnv1kfypabmCLU-68" style="edgeStyle=none;curved=1;rounded=0;sketch=1;hachureGap=4;jiggle=2;curveFitting=1;orthogonalLoop=1;jettySize=auto;html=1;exitX=0.5;exitY=1;exitDx=0;exitDy=0;strokeColor=#A8201A;fontFamily=Architects Daughter;fontSource=https%3A%2F%2Ffonts.googleapis.com%2Fcss%3Ffamily%3DArchitects%2BDaughter;fontSize=16;fontColor=#143642;startSize=14;endArrow=open;endSize=14;sourcePerimeterSpacing=8;targetPerimeterSpacing=8;fillColor=#FAE5C7;" edge="1" parent="TcwltuWnv1kfypabmCLU-25" source="TcwltuWnv1kfypabmCLU-66" target="TcwltuWnv1kfypabmCLU-67">
          <mxGeometry relative="1" as="geometry" />
        </mxCell>
        <mxCell id="TcwltuWnv1kfypabmCLU-66" value="1" style="ellipse;whiteSpace=wrap;html=1;sketch=1;hachureGap=4;jiggle=2;curveFitting=1;strokeColor=#0F8B8D;fontFamily=Architects Daughter;fontSource=https%3A%2F%2Ffonts.googleapis.com%2Fcss%3Ffamily%3DArchitects%2BDaughter;fontColor=#143642;fillColor=#FAE5C7;" vertex="1" parent="TcwltuWnv1kfypabmCLU-25">
          <mxGeometry x="-100" y="-230" width="160" height="100" as="geometry" />
        </mxCell>
        <mxCell id="TcwltuWnv1kfypabmCLU-72" style="edgeStyle=none;curved=1;rounded=0;sketch=1;hachureGap=4;jiggle=2;curveFitting=1;orthogonalLoop=1;jettySize=auto;html=1;entryX=0.5;entryY=0;entryDx=0;entryDy=0;strokeColor=#A8201A;fontFamily=Architects Daughter;fontSource=https%3A%2F%2Ffonts.googleapis.com%2Fcss%3Ffamily%3DArchitects%2BDaughter;fontSize=16;fontColor=#143642;startSize=14;endArrow=open;endSize=14;sourcePerimeterSpacing=8;targetPerimeterSpacing=8;fillColor=#FAE5C7;" edge="1" parent="TcwltuWnv1kfypabmCLU-25" target="TcwltuWnv1kfypabmCLU-71">
          <mxGeometry relative="1" as="geometry">
            <mxPoint x="-20" y="70" as="sourcePoint" />
          </mxGeometry>
        </mxCell>
        <mxCell id="TcwltuWnv1kfypabmCLU-67" value="2" style="ellipse;whiteSpace=wrap;html=1;sketch=1;hachureGap=4;jiggle=2;curveFitting=1;strokeColor=#0F8B8D;fontFamily=Architects Daughter;fontSource=https%3A%2F%2Ffonts.googleapis.com%2Fcss%3Ffamily%3DArchitects%2BDaughter;fontColor=#143642;fillColor=#FAE5C7;" vertex="1" parent="TcwltuWnv1kfypabmCLU-25">
          <mxGeometry x="-100" y="-30" width="160" height="90" as="geometry" />
        </mxCell>
        <mxCell id="TcwltuWnv1kfypabmCLU-70" value="根据订单类型确定流程1" style="text;html=1;align=center;verticalAlign=middle;resizable=0;points=[];autosize=1;strokeColor=none;fillColor=none;fontSize=20;fontFamily=Architects Daughter;fontSource=https%3A%2F%2Ffonts.googleapis.com%2Fcss%3Ffamily%3DArchitects%2BDaughter;fontColor=#143642;" vertex="1" parent="TcwltuWnv1kfypabmCLU-25">
          <mxGeometry x="213" y="-452" width="230" height="40" as="geometry" />
        </mxCell>
        <mxCell id="TcwltuWnv1kfypabmCLU-71" value="3" style="ellipse;whiteSpace=wrap;html=1;sketch=1;hachureGap=4;jiggle=2;curveFitting=1;strokeColor=#0F8B8D;fontFamily=Architects Daughter;fontSource=https%3A%2F%2Ffonts.googleapis.com%2Fcss%3Ffamily%3DArchitects%2BDaughter;fontColor=#143642;fillColor=#FAE5C7;" vertex="1" parent="TcwltuWnv1kfypabmCLU-25">
          <mxGeometry x="-100" y="160" width="160" height="100" as="geometry" />
        </mxCell>
      </root>
    </mxGraphModel>
  </diagram>
</mxfile>
